<svg xmlns="http://www.w3.org/2000/svg" xmlns:xlink="http://www.w3.org/1999/xlink" width="500" zoomAndPan="magnify" viewBox="0 0 375 374.999991" height="500" preserveAspectRatio="xMidYMid meet" version="1.0"><defs><g/><clipPath id="id1"><path d="M 94.136719 147 L 110 147 L 110 172 L 94.136719 172 Z M 94.136719 147 " clip-rule="nonzero"/></clipPath><clipPath id="id2"><path d="M 240 136 L 280.886719 136 L 280.886719 174 L 240 174 Z M 240 136 " clip-rule="nonzero"/></clipPath><clipPath id="id3"><path d="M 155 65.304688 L 219 65.304688 L 219 204.054688 L 155 204.054688 Z M 155 65.304688 " clip-rule="nonzero"/></clipPath></defs><g clip-path="url(#id1)"><path fill="#ec1d27" d="M 107.566406 147.78125 L 109.125 150.144531 C 103.179688 156.335938 98.121094 163.375 94.136719 171.0625 C 97.472656 162.667969 102.019531 154.84375 107.566406 147.78125 " fill-opacity="1" fill-rule="nonzero"/></g><path fill="#ec1d27" d="M 121.550781 139.359375 C 117.972656 141.929688 114.59375 144.761719 111.4375 147.824219 L 109.691406 145.179688 C 112.574219 141.761719 115.691406 138.539062 119.035156 135.550781 L 121.550781 139.359375 " fill-opacity="1" fill-rule="nonzero"/><path fill="#ec1d27" d="M 136.84375 130.507812 C 132.421875 132.511719 128.1875 134.863281 124.191406 137.527344 L 121.476562 133.417969 C 125.371094 130.148438 129.53125 127.160156 133.929688 124.496094 L 136.84375 130.507812 " fill-opacity="1" fill-rule="nonzero"/><path fill="#ec1d27" d="M 158.078125 123.925781 C 151.722656 125.046875 145.605469 126.847656 139.796875 129.230469 L 136.714844 122.871094 C 142.894531 119.390625 149.507812 116.523438 156.460938 114.378906 L 158.078125 123.925781 " fill-opacity="1" fill-rule="nonzero"/><path fill="#ec1d27" d="M 187.238281 109.800781 L 186.609375 123.449219 C 182.429688 122.851562 178.160156 122.542969 173.824219 122.542969 C 169.554688 122.542969 165.355469 122.839844 161.246094 123.421875 L 159.566406 113.472656 C 168.277344 111.085938 177.480469 109.800781 187 109.800781 L 187.238281 109.800781 " fill-opacity="1" fill-rule="nonzero"/><path fill="#ec1d27" d="M 222.414062 116.023438 L 214.636719 132.355469 C 206.933594 128.40625 198.585938 125.542969 189.792969 123.96875 L 190.449219 109.859375 C 201.675781 110.222656 212.433594 112.375 222.414062 116.023438 " fill-opacity="1" fill-rule="nonzero"/><path fill="#ec1d27" d="M 253.523438 134.273438 L 238.097656 149.707031 C 232.050781 143.484375 225.105469 138.136719 217.472656 133.875 L 225.425781 117.179688 C 235.804688 121.339844 245.285156 127.15625 253.523438 134.273438 " fill-opacity="1" fill-rule="nonzero"/><g clip-path="url(#id2)"><path fill="#ec1d27" d="M 280.886719 173.730469 L 254.839844 173.730469 C 251.050781 165.789062 246.140625 158.492188 240.296875 152.050781 L 255.921875 136.410156 C 267.074219 146.6875 275.710938 159.4375 280.886719 173.730469 " fill-opacity="1" fill-rule="nonzero"/></g><path fill="#ec1d27" d="M 182.050781 132.390625 C 182.050781 132.390625 181.652344 132.296875 180.90625 132.125 C 180.535156 132.039062 180.074219 131.929688 179.53125 131.800781 C 179.011719 131.703125 178.414062 131.585938 177.746094 131.457031 C 177.082031 131.316406 176.324219 131.207031 175.496094 131.082031 C 174.671875 130.941406 173.769531 130.832031 172.808594 130.730469 C 170.886719 130.5 168.703125 130.378906 166.3125 130.308594 C 163.925781 130.300781 161.328125 130.328125 158.589844 130.585938 C 155.855469 130.839844 152.972656 131.191406 150.023438 131.800781 C 147.078125 132.402344 144.054688 133.15625 141.039062 134.125 C 140.28125 134.363281 139.535156 134.636719 138.777344 134.890625 C 138.414062 135.023438 137.996094 135.152344 137.671875 135.285156 L 136.539062 135.730469 C 135.78125 136.027344 135.019531 136.324219 134.261719 136.621094 L 132.066406 137.601562 C 130.59375 138.222656 129.167969 138.992188 127.730469 139.710938 C 127.003906 140.058594 126.324219 140.484375 125.621094 140.871094 C 124.929688 141.273438 124.222656 141.648438 123.546875 142.066406 C 122.875 142.492188 122.203125 142.917969 121.539062 143.339844 L 120.542969 143.972656 L 119.582031 144.648438 C 118.941406 145.097656 118.308594 145.542969 117.675781 145.984375 C 117.058594 146.445312 116.460938 146.925781 115.859375 147.386719 C 113.449219 149.238281 111.289062 151.234375 109.277344 153.171875 C 108.320312 154.183594 107.359375 155.148438 106.484375 156.125 C 105.640625 157.132812 104.769531 158.0625 104.03125 159.03125 C 102.503906 160.9375 101.21875 162.773438 100.128906 164.433594 C 99.609375 165.28125 99.121094 166.070312 98.667969 166.804688 C 98.242188 167.550781 97.875 168.25 97.53125 168.875 C 96.820312 170.117188 96.398438 171.160156 96.054688 171.847656 C 95.726562 172.539062 95.554688 172.910156 95.554688 172.910156 C 95.554688 172.910156 95.710938 172.535156 96.007812 171.828125 C 96.324219 171.128906 96.699219 170.0625 97.359375 168.789062 C 97.675781 168.148438 98.015625 167.429688 98.410156 166.660156 C 98.832031 165.90625 99.289062 165.089844 99.777344 164.21875 C 100.800781 162.5 102.015625 160.59375 103.472656 158.605469 C 104.179688 157.589844 105.015625 156.617188 105.828125 155.5625 C 106.671875 154.53125 107.597656 153.515625 108.527344 152.449219 C 110.476562 150.398438 112.585938 148.273438 114.960938 146.285156 C 115.550781 145.789062 116.140625 145.277344 116.75 144.777344 C 117.371094 144.300781 118 143.816406 118.632812 143.332031 L 119.582031 142.601562 L 120.570312 141.910156 C 121.234375 141.449219 121.898438 140.988281 122.566406 140.523438 C 123.238281 140.066406 123.945312 139.648438 124.636719 139.210938 C 125.335938 138.785156 126.015625 138.316406 126.742188 137.929688 C 128.183594 137.128906 129.605469 136.28125 131.113281 135.5625 L 133.355469 134.449219 C 134.101562 134.121094 134.847656 133.789062 135.59375 133.460938 L 136.707031 132.964844 C 137.128906 132.773438 137.484375 132.652344 137.875 132.496094 C 138.644531 132.195312 139.402344 131.882812 140.167969 131.605469 C 143.238281 130.46875 146.332031 129.554688 149.359375 128.800781 C 152.390625 128.039062 155.375 127.539062 158.222656 127.152344 C 161.066406 126.761719 163.785156 126.613281 166.296875 126.515625 C 168.808594 126.480469 171.121094 126.511719 173.164062 126.667969 C 174.1875 126.730469 175.144531 126.804688 176.023438 126.914062 C 176.90625 127.007812 177.71875 127.089844 178.460938 127.214844 C 179.203125 127.324219 179.863281 127.425781 180.4375 127.511719 C 180.984375 127.613281 181.449219 127.703125 181.824219 127.773438 C 182.578125 127.914062 182.980469 127.992188 182.980469 127.992188 L 182.050781 132.390625 " fill-opacity="1" fill-rule="nonzero"/><g clip-path="url(#id3)"><path fill="#ec1d27" d="M 176.511719 180.617188 L 218.28125 65.308594 L 167.433594 177.957031 C 160.746094 178.53125 155.496094 184.132812 155.496094 190.976562 C 155.496094 198.195312 161.34375 204.050781 168.558594 204.050781 C 175.777344 204.050781 181.628906 198.195312 181.628906 190.976562 C 181.628906 186.753906 179.617188 183.007812 176.511719 180.617188 " fill-opacity="1" fill-rule="nonzero"/></g><path fill="#ec1d27" d="M 235.265625 178.660156 L 233.246094 175.277344 L 243.164062 169.347656 L 245.183594 172.730469 L 235.265625 178.660156 " fill-opacity="1" fill-rule="nonzero"/><path fill="#ec1d27" d="M 225.226562 164.574219 L 222.546875 161.683594 L 231.019531 153.820312 L 233.699219 156.710938 L 225.226562 164.574219 " fill-opacity="1" fill-rule="nonzero"/><path fill="#ec1d27" d="M 212.484375 152.882812 L 209.261719 150.613281 L 215.914062 141.160156 L 219.132812 143.429688 L 212.484375 152.882812 " fill-opacity="1" fill-rule="nonzero"/><path fill="#ec1d27" d="M 197.585938 144.101562 L 193.964844 142.550781 L 198.503906 131.921875 L 202.128906 133.46875 L 197.585938 144.101562 " fill-opacity="1" fill-rule="nonzero"/><g fill="#545454" fill-opacity="1"><g transform="translate(60.023438, 247.787854)"><g><path d="M 18.171875 0.324219 C 22.398438 0.324219 26.179688 -1.097656 28.699219 -2.96875 C 29.714844 -3.578125 30.648438 -3.617188 30.730469 -2.96875 L 30.773438 -2.398438 L 30.933594 -2.316406 L 30.933594 -7.398438 L 30.40625 -7.398438 C 30.324219 -7.316406 30.242188 -7.152344 30.160156 -7.074219 C 29.105469 -5.730469 27.355469 -3.863281 26.382812 -3.089844 C 24.0625 -1.339844 21.136719 -0.0390625 18.25 -0.0390625 C 12.886719 -0.0390625 7.640625 -8.046875 7.640625 -16.179688 C 7.640625 -24.308594 13.128906 -32.316406 18.738281 -32.316406 C 21.21875 -32.316406 23.738281 -31.136719 25.933594 -29.511719 C 27.152344 -28.578125 29.265625 -26.421875 30.160156 -25.160156 C 30.203125 -25.082031 30.363281 -24.917969 30.40625 -24.835938 L 30.933594 -24.835938 L 30.933594 -29.917969 L 30.730469 -29.917969 L 30.691406 -29.347656 C 30.609375 -28.738281 29.632812 -28.820312 28.617188 -29.429688 C 26.179688 -31.300781 22.761719 -32.761719 18.65625 -32.761719 C 10.082031 -32.761719 1.667969 -24.59375 1.667969 -16.21875 C 1.667969 -7.84375 9.835938 0.324219 18.171875 0.324219 Z M 18.171875 0.324219 "/></g></g><g transform="translate(92.624266, 247.787854)"><g><path d="M 12.195312 0.40625 C 16.015625 0.40625 20.730469 -2.683594 21.707031 -5.8125 L 21.503906 -5.851562 C 20.730469 -3.375 16.382812 -0.976562 12.683594 -0.976562 C 9.675781 -0.976562 6.746094 -6.464844 6.746094 -12.03125 C 6.746094 -13.089844 6.828125 -14.105469 6.992188 -15.039062 L 22.519531 -15.039062 C 22.074219 -19.59375 17.558594 -22.519531 13.210938 -22.519531 C 7.480469 -22.519531 1.828125 -17.640625 1.828125 -10.121094 C 1.828125 -4.796875 6.949219 0.40625 12.195312 0.40625 Z M 7.03125 -15.367188 C 7.925781 -19.59375 10.488281 -22.195312 13.089844 -22.195312 C 14.835938 -22.195312 16.789062 -19.550781 17.277344 -15.40625 Z M 7.03125 -15.367188 "/></g></g><g transform="translate(116.363522, 247.787854)"><g><path d="M 1.058594 0 L 5.730469 0 L 5.730469 -16.789062 C 7.03125 -18.453125 10.039062 -20.082031 11.828125 -20.082031 C 13.578125 -20.082031 14.957031 -17.355469 14.957031 -14.550781 L 14.957031 0 L 19.632812 0 L 19.632812 -14.550781 C 19.632812 -18.578125 16.871094 -22.519531 13.375 -22.519531 C 11.464844 -22.519531 7.683594 -20.082031 5.730469 -17.601562 L 5.730469 -22.113281 L 3.414062 -22.113281 L 3.414062 -22.152344 C 2.683594 -21.992188 1.179688 -21.585938 0.445312 -21.382812 L 0.445312 -21.179688 L 0.570312 -21.179688 C 0.8125 -21.097656 1.058594 -20.160156 1.058594 -19.226562 Z M 1.058594 0 "/></g></g></g><g fill="#545454" fill-opacity="1"><g transform="translate(137.785762, 247.787854)"><g><path d="M 10.488281 0.40625 C 13.453125 0.40625 16.707031 -2.480469 16.992188 -5.445312 L 16.382812 -5.527344 C 16.179688 -3.660156 13.984375 -1.789062 11.910156 -1.789062 C 10.203125 -1.789062 8.535156 -3.902344 8.535156 -7.195312 L 8.660156 -19.632812 L 15.367188 -19.632812 L 15.367188 -22.113281 L 8.660156 -22.113281 L 8.660156 -27.4375 L 8.332031 -27.4375 L 1.339844 -20.039062 L 1.339844 -19.632812 L 3.984375 -19.632812 L 3.984375 -8.25 C 3.984375 -3.007812 7.195312 0.40625 10.488281 0.40625 Z M 10.488281 0.40625 "/></g></g><g transform="translate(155.18371, 247.787854)"><g><path d="M 7.4375 0.40625 C 10.203125 0.40625 13.863281 -2.234375 15.242188 -5.121094 L 15.242188 0 L 17.558594 0 L 17.558594 0.0390625 L 19.917969 -0.609375 L 19.917969 -22.113281 L 15.242188 -22.113281 L 15.242188 -5.648438 C 14.308594 -4.1875 11.746094 -2.84375 9.632812 -2.84375 C 7.601562 -2.84375 5.570312 -4.796875 5.570312 -6.789062 L 5.570312 -22.113281 L 0.894531 -22.113281 L 0.894531 -6.789062 C 0.894531 -3.171875 4.144531 0.40625 7.4375 0.40625 Z M 7.4375 0.40625 "/></g></g><g transform="translate(176.687249, 247.787854)"><g><path d="M 1.097656 0 L 5.773438 0 L 5.773438 -16.746094 C 6.910156 -18.617188 8.984375 -20.324219 10.285156 -20.324219 C 11.339844 -20.324219 12.398438 -19.632812 12.398438 -18.902344 C 12.398438 -17.519531 13.78125 -16.136719 15.164062 -16.136719 C 16.542969 -16.136719 17.886719 -17.519531 17.886719 -18.902344 C 17.886719 -20.730469 15.203125 -22.519531 12.4375 -22.519531 C 10.40625 -22.519531 7.234375 -20.082031 5.730469 -17.480469 L 5.730469 -22.113281 L 3.414062 -22.113281 L 3.414062 -22.152344 C 2.683594 -21.992188 1.179688 -21.585938 0.445312 -21.382812 L 0.488281 -21.179688 L 0.609375 -21.179688 C 0.855469 -21.097656 1.097656 -20.160156 1.097656 -19.226562 Z M 1.097656 0 "/></g></g><g transform="translate(194.979484, 247.787854)"><g><path d="M 5.976562 10.609375 C 6.992188 10.609375 9.269531 8.699219 10.039062 6.789062 C 11.625 2.804688 13.210938 -1.179688 14.753906 -5.242188 C 16.585938 -10.082031 18.414062 -14.917969 20.285156 -19.714844 C 20.773438 -20.933594 21.339844 -21.949219 21.707031 -21.949219 L 21.746094 -22.113281 L 18.453125 -22.113281 L 18.453125 -21.992188 L 18.535156 -21.992188 C 18.78125 -21.992188 18.65625 -20.976562 18.332031 -19.878906 L 13.820312 -6.136719 C 11.667969 -10.648438 9.472656 -15.203125 7.359375 -19.714844 C 6.828125 -20.851562 6.503906 -21.949219 6.746094 -21.949219 L 6.828125 -21.949219 L 6.828125 -22.074219 L 0.609375 -22.074219 L 0.609375 -21.949219 C 0.976562 -21.949219 1.667969 -20.933594 2.234375 -19.714844 L 11.464844 -0.203125 L 8.902344 6.179688 C 8.535156 7.074219 7.886719 7.925781 7.804688 7.925781 C 7.03125 7.925781 6.542969 6.382812 5.773438 6.382812 C 4.757812 6.382812 3.78125 7.359375 3.78125 8.375 C 3.78125 9.511719 4.878906 10.609375 5.976562 10.609375 Z M 5.976562 10.609375 "/></g></g></g><g fill="#545454" fill-opacity="1"><g transform="translate(217.621206, 247.787854)"><g/></g><g transform="translate(229.124989, 247.787854)"><g><path d="M 18.171875 0.324219 C 22.398438 0.324219 26.179688 -1.097656 28.699219 -2.96875 C 29.714844 -3.578125 30.648438 -3.617188 30.730469 -2.96875 L 30.773438 -2.398438 L 30.933594 -2.316406 L 30.933594 -7.398438 L 30.40625 -7.398438 C 30.324219 -7.316406 30.242188 -7.152344 30.160156 -7.074219 C 29.105469 -5.730469 27.355469 -3.863281 26.382812 -3.089844 C 24.0625 -1.339844 21.136719 -0.0390625 18.25 -0.0390625 C 12.886719 -0.0390625 7.640625 -8.046875 7.640625 -16.179688 C 7.640625 -24.308594 13.128906 -32.316406 18.738281 -32.316406 C 21.21875 -32.316406 23.738281 -31.136719 25.933594 -29.511719 C 27.152344 -28.578125 29.265625 -26.421875 30.160156 -25.160156 C 30.203125 -25.082031 30.363281 -24.917969 30.40625 -24.835938 L 30.933594 -24.835938 L 30.933594 -29.917969 L 30.730469 -29.917969 L 30.691406 -29.347656 C 30.609375 -28.738281 29.632812 -28.820312 28.617188 -29.429688 C 26.179688 -31.300781 22.761719 -32.761719 18.65625 -32.761719 C 10.082031 -32.761719 1.667969 -24.59375 1.667969 -16.21875 C 1.667969 -7.84375 9.835938 0.324219 18.171875 0.324219 Z M 18.171875 0.324219 "/></g></g><g transform="translate(261.725817, 247.787854)"><g><path d="M 1.058594 0 L 5.730469 0 L 5.730469 -32.277344 L 3.414062 -32.277344 L 3.414062 -32.316406 C 2.683594 -32.152344 1.179688 -31.746094 0.445312 -31.542969 L 0.445312 -31.339844 L 0.570312 -31.339844 C 0.8125 -31.257812 1.058594 -30.324219 1.058594 -29.390625 Z M 1.058594 0 "/></g></g></g><g fill="#545454" fill-opacity="1"><g transform="translate(269.245958, 247.787854)"><g><path d="M 7.4375 0.40625 C 10.203125 0.40625 13.863281 -2.234375 15.242188 -5.121094 L 15.242188 0 L 17.558594 0 L 17.558594 0.0390625 L 19.917969 -0.609375 L 19.917969 -22.113281 L 15.242188 -22.113281 L 15.242188 -5.648438 C 14.308594 -4.1875 11.746094 -2.84375 9.632812 -2.84375 C 7.601562 -2.84375 5.570312 -4.796875 5.570312 -6.789062 L 5.570312 -22.113281 L 0.894531 -22.113281 L 0.894531 -6.789062 C 0.894531 -3.171875 4.144531 0.40625 7.4375 0.40625 Z M 7.4375 0.40625 "/></g></g></g><g fill="#545454" fill-opacity="1"><g transform="translate(290.749497, 247.787854)"><g><path d="M 12.03125 -22.316406 C 10.324219 -22.316406 7.4375 -20.976562 5.691406 -19.429688 L 5.691406 -32.277344 L 3.375 -32.277344 L 3.375 -32.316406 L 0.40625 -31.503906 L 0.40625 -31.300781 C 0.8125 -31.300781 1.015625 -30.40625 1.015625 -29.390625 L 1.015625 0 L 1.261719 0 L 2.925781 -2.601562 C 4.960938 -0.894531 8.210938 0.40625 11.136719 0.40625 C 16.828125 0.40625 22.398438 -5.324219 22.398438 -11.179688 C 22.398438 -16.789062 17.277344 -22.316406 12.03125 -22.316406 Z M 11.300781 -0.285156 C 9.269531 -0.285156 6.667969 -2.316406 5.691406 -4.550781 L 5.691406 -18.578125 C 7.074219 -19.753906 9.269531 -20.8125 10.527344 -20.8125 C 13.863281 -20.8125 17.152344 -15.773438 17.152344 -10.648438 C 17.152344 -5.40625 14.269531 -0.285156 11.300781 -0.285156 Z M 11.300781 -0.285156 "/></g></g></g><g fill="#ec1d27" fill-opacity="1"><g transform="translate(80.260392, 272.84008)"><g><path d="M 0.199219 0 L 10.101562 0 L 10.101562 -0.511719 L 0.84375 -0.511719 L 9.96875 -8.574219 L 9.96875 -9.230469 L 0.328125 -9.230469 L 0.328125 -8.71875 L 9.3125 -8.71875 L 0.199219 -0.660156 Z M 0.199219 0 "/></g></g></g><g fill="#ec1d27" fill-opacity="1"><g transform="translate(91.697429, 272.84008)"><g><path d="M 0.660156 0 L 9.652344 0 L 9.652344 -0.511719 L 1.199219 -0.511719 L 1.199219 -4.542969 L 8.996094 -4.542969 L 8.996094 -5.058594 L 1.199219 -5.058594 L 1.199219 -8.71875 L 9.523438 -8.71875 L 9.523438 -9.230469 L 0.660156 -9.230469 Z M 0.660156 0 "/></g></g></g><g fill="#ec1d27" fill-opacity="1"><g transform="translate(102.752829, 272.84008)"><g><path d="M 9.941406 0.261719 C 10.484375 0.261719 10.867188 -0.0117188 11.117188 -0.394531 L 10.761719 -0.75 C 10.550781 -0.394531 10.3125 -0.238281 9.996094 -0.238281 C 9.441406 -0.238281 9.207031 -0.660156 9.019531 -1.199219 L 8.574219 -2.460938 C 8.324219 -3.199219 7.996094 -3.804688 7.414062 -4.121094 L 7.414062 -4.136719 C 9.191406 -4.226562 10.378906 -5.226562 10.378906 -6.675781 C 10.378906 -8.179688 9.046875 -9.230469 7.164062 -9.230469 L 0.660156 -9.230469 L 0.660156 0 L 1.199219 0 L 1.199219 -4.03125 L 6.214844 -4.03125 C 7.230469 -4.03125 7.691406 -3.34375 7.996094 -2.4375 L 8.480469 -1.121094 C 8.757812 -0.316406 9.140625 0.261719 9.941406 0.261719 Z M 1.183594 -4.542969 L 1.183594 -8.71875 L 7.136719 -8.71875 C 8.707031 -8.71875 9.8125 -7.847656 9.8125 -6.625 C 9.8125 -5.425781 8.707031 -4.542969 7.136719 -4.542969 Z M 1.183594 -4.542969 "/></g></g></g><g fill="#ec1d27" fill-opacity="1"><g transform="translate(115.005797, 272.84008)"><g><path d="M 6.742188 0.328125 C 10.484375 0.328125 12.960938 -1.644531 12.960938 -4.609375 C 12.960938 -7.585938 10.484375 -9.5625 6.742188 -9.5625 C 3.003906 -9.5625 0.527344 -7.585938 0.527344 -4.609375 C 0.527344 -1.644531 3.003906 0.328125 6.742188 0.328125 Z M 6.742188 -0.183594 C 3.332031 -0.183594 1.066406 -1.960938 1.066406 -4.609375 C 1.066406 -7.269531 3.332031 -9.046875 6.742188 -9.046875 C 10.152344 -9.046875 12.417969 -7.269531 12.417969 -4.609375 C 12.417969 -1.960938 10.152344 -0.183594 6.742188 -0.183594 Z M 6.742188 -0.183594 "/></g></g></g><g fill="#ec1d27" fill-opacity="1"><g transform="translate(129.627597, 272.84008)"><g/></g></g><g fill="#ec1d27" fill-opacity="1"><g transform="translate(135.800569, 272.84008)"><g><path d="M 4.636719 0 L 5.175781 0 L 5.175781 -8.71875 L 9.746094 -8.71875 L 9.746094 -9.230469 L 0.0664062 -9.230469 L 0.0664062 -8.71875 L 4.636719 -8.71875 Z M 4.636719 0 "/></g></g></g><g fill="#ec1d27" fill-opacity="1"><g transform="translate(146.750681, 272.84008)"><g><path d="M 6.742188 0.328125 C 10.484375 0.328125 12.960938 -1.644531 12.960938 -4.609375 C 12.960938 -7.585938 10.484375 -9.5625 6.742188 -9.5625 C 3.003906 -9.5625 0.527344 -7.585938 0.527344 -4.609375 C 0.527344 -1.644531 3.003906 0.328125 6.742188 0.328125 Z M 6.742188 -0.183594 C 3.332031 -0.183594 1.066406 -1.960938 1.066406 -4.609375 C 1.066406 -7.269531 3.332031 -9.046875 6.742188 -9.046875 C 10.152344 -9.046875 12.417969 -7.269531 12.417969 -4.609375 C 12.417969 -1.960938 10.152344 -0.183594 6.742188 -0.183594 Z M 6.742188 -0.183594 "/></g></g></g><g fill="#ec1d27" fill-opacity="1"><g transform="translate(161.372481, 272.84008)"><g/></g></g><g fill="#ec1d27" fill-opacity="1"><g transform="translate(167.545453, 272.84008)"><g><path d="M 6.742188 0.328125 C 10.484375 0.328125 12.960938 -1.644531 12.960938 -4.609375 C 12.960938 -7.585938 10.484375 -9.5625 6.742188 -9.5625 C 3.003906 -9.5625 0.527344 -7.585938 0.527344 -4.609375 C 0.527344 -1.644531 3.003906 0.328125 6.742188 0.328125 Z M 6.742188 -0.183594 C 3.332031 -0.183594 1.066406 -1.960938 1.066406 -4.609375 C 1.066406 -7.269531 3.332031 -9.046875 6.742188 -9.046875 C 10.152344 -9.046875 12.417969 -7.269531 12.417969 -4.609375 C 12.417969 -1.960938 10.152344 -0.183594 6.742188 -0.183594 Z M 6.742188 -0.183594 "/></g></g></g><g fill="#ec1d27" fill-opacity="1"><g transform="translate(182.167253, 272.84008)"><g><path d="M 0.660156 0 L 1.199219 0 L 1.199219 -8.679688 L 1.210938 -8.679688 L 9.402344 0 L 10.140625 0 L 10.140625 -9.230469 L 9.601562 -9.230469 L 9.601562 -0.539062 L 9.585938 -0.539062 L 1.410156 -9.230469 L 0.660156 -9.230469 Z M 0.660156 0 "/></g></g></g><g fill="#ec1d27" fill-opacity="1"><g transform="translate(194.10439, 272.84008)"><g><path d="M 0.660156 0 L 9.652344 0 L 9.652344 -0.511719 L 1.199219 -0.511719 L 1.199219 -4.542969 L 8.996094 -4.542969 L 8.996094 -5.058594 L 1.199219 -5.058594 L 1.199219 -8.71875 L 9.523438 -8.71875 L 9.523438 -9.230469 L 0.660156 -9.230469 Z M 0.660156 0 "/></g></g></g><g fill="#ec1d27" fill-opacity="1"><g transform="translate(205.159794, 272.84008)"><g/></g></g><g fill="#ec1d27" fill-opacity="1"><g transform="translate(211.332771, 272.84008)"><g><path d="M 0.660156 0 L 1.199219 0 L 1.199219 -4.558594 L 9.601562 -4.558594 L 9.601562 0 L 10.140625 0 L 10.140625 -9.230469 L 9.601562 -9.230469 L 9.601562 -5.082031 L 1.199219 -5.082031 L 1.199219 -9.230469 L 0.660156 -9.230469 Z M 0.660156 0 "/></g></g></g><g fill="#ec1d27" fill-opacity="1"><g transform="translate(223.269908, 272.84008)"><g><path d="M 5.386719 0.328125 C 8.46875 0.328125 10.257812 -1.226562 10.257812 -3.898438 L 10.257812 -9.230469 L 9.71875 -9.230469 L 9.71875 -3.898438 C 9.71875 -1.539062 8.125 -0.199219 5.398438 -0.199219 C 2.660156 -0.199219 1.066406 -1.539062 1.066406 -3.898438 L 1.066406 -9.230469 L 0.527344 -9.230469 L 0.527344 -3.898438 C 0.527344 -1.226562 2.316406 0.328125 5.386719 0.328125 Z M 5.386719 0.328125 "/></g></g></g><g fill="#ec1d27" fill-opacity="1"><g transform="translate(235.193884, 272.84008)"><g><path d="M 0.660156 0 L 1.199219 0 L 1.199219 -8.679688 L 1.210938 -8.679688 L 9.402344 0 L 10.140625 0 L 10.140625 -9.230469 L 9.601562 -9.230469 L 9.601562 -0.539062 L 9.585938 -0.539062 L 1.410156 -9.230469 L 0.660156 -9.230469 Z M 0.660156 0 "/></g></g></g><g fill="#ec1d27" fill-opacity="1"><g transform="translate(247.131021, 272.84008)"><g><path d="M 0.660156 0 L 5.664062 0 C 9.140625 0 11.0625 -1.644531 11.0625 -4.609375 C 11.0625 -7.585938 9.140625 -9.230469 5.664062 -9.230469 L 0.660156 -9.230469 Z M 1.199219 -0.511719 L 1.199219 -8.71875 L 5.664062 -8.71875 C 8.785156 -8.71875 10.523438 -7.257812 10.523438 -4.609375 C 10.523438 -1.976562 8.785156 -0.511719 5.664062 -0.511719 Z M 1.199219 -0.511719 "/></g></g></g><g fill="#ec1d27" fill-opacity="1"><g transform="translate(259.857765, 272.84008)"><g><path d="M 9.941406 0.261719 C 10.484375 0.261719 10.867188 -0.0117188 11.117188 -0.394531 L 10.761719 -0.75 C 10.550781 -0.394531 10.3125 -0.238281 9.996094 -0.238281 C 9.441406 -0.238281 9.207031 -0.660156 9.019531 -1.199219 L 8.574219 -2.460938 C 8.324219 -3.199219 7.996094 -3.804688 7.414062 -4.121094 L 7.414062 -4.136719 C 9.191406 -4.226562 10.378906 -5.226562 10.378906 -6.675781 C 10.378906 -8.179688 9.046875 -9.230469 7.164062 -9.230469 L 0.660156 -9.230469 L 0.660156 0 L 1.199219 0 L 1.199219 -4.03125 L 6.214844 -4.03125 C 7.230469 -4.03125 7.691406 -3.34375 7.996094 -2.4375 L 8.480469 -1.121094 C 8.757812 -0.316406 9.140625 0.261719 9.941406 0.261719 Z M 1.183594 -4.542969 L 1.183594 -8.71875 L 7.136719 -8.71875 C 8.707031 -8.71875 9.8125 -7.847656 9.8125 -6.625 C 9.8125 -5.425781 8.707031 -4.542969 7.136719 -4.542969 Z M 1.183594 -4.542969 "/></g></g></g><g fill="#ec1d27" fill-opacity="1"><g transform="translate(272.110736, 272.84008)"><g><path d="M 0.660156 0 L 9.652344 0 L 9.652344 -0.511719 L 1.199219 -0.511719 L 1.199219 -4.542969 L 8.996094 -4.542969 L 8.996094 -5.058594 L 1.199219 -5.058594 L 1.199219 -8.71875 L 9.523438 -8.71875 L 9.523438 -9.230469 L 0.660156 -9.230469 Z M 0.660156 0 "/></g></g></g><g fill="#ec1d27" fill-opacity="1"><g transform="translate(283.16614, 272.84008)"><g><path d="M 0.660156 0 L 5.664062 0 C 9.140625 0 11.0625 -1.644531 11.0625 -4.609375 C 11.0625 -7.585938 9.140625 -9.230469 5.664062 -9.230469 L 0.660156 -9.230469 Z M 1.199219 -0.511719 L 1.199219 -8.71875 L 5.664062 -8.71875 C 8.785156 -8.71875 10.523438 -7.257812 10.523438 -4.609375 C 10.523438 -1.976562 8.785156 -0.511719 5.664062 -0.511719 Z M 1.199219 -0.511719 "/></g></g></g></svg>