<svg id="Layer_1" data-name="Layer 1" xmlns="http://www.w3.org/2000/svg" viewBox="0 0 184.88 147.41"><defs><style>.cls-1{fill:#f2f2f2;stroke:#d92938;stroke-miterlimit:10;}</style></defs><path class="cls-1" d="M184.38,52.42C184.38,23.75,159,.5,127.65.5H.91L14.18,21.32H127.65c18.73,0,34,14,34,31.1,0,15.74-12.86,28.75-29.46,30.79l-7.84-12.77H100.26l47,76.47h24.07l-27.47-44.73C167.27,95.81,184.38,76,184.38,52.42Z"/><polygon class="cls-1" points="95.28 83.52 89.16 83.52 65.1 83.52 57.18 83.52 36.93 83.52 36.93 62.83 77.61 62.83 69.14 76.83 93.2 76.83 101.67 62.83 114.33 42.01 90.27 42.01 14.18 42.01 14.18 42.14 14.18 62.83 14.18 104.34 23.93 104.34 48.82 104.34 83.94 104.34 96.9 126.09 36.93 126.09 36.93 115.43 14.18 115.43 14.18 126.09 14.18 146.91 36.93 146.91 133.63 146.91 95.28 83.52"/></svg>